# Low-poly OBJ model for Assignment 4 lighting.
v 0.0 0.75 1.25
v -0.75 0.0 0.85
v 0.75 0.0 0.85
v 0.0 -0.45 1.0
v -1.0 0.0 -0.7
v 1.0 0.0 -0.7
v -0.55 -0.35 -0.95
v 0.55 -0.35 -0.95
v 0.0 0.55 -1.05
v 0.0 1.25 -0.1
v -0.38 0.65 -0.2
v 0.38 0.65 -0.2
v 0.0 0.35 -0.25
v -1.55 0.05 -0.15
v 1.55 0.05 -0.15
v -0.45 0.07 -0.05
v 0.45 0.07 -0.05
v -0.15 1.45 0.0
v 0.15 1.45 0.0
v 0.0 0.95 -0.05
f 1 2 3
f 1 3 10
f 1 10 2
f 2 4 3
f 2 5 7 4
f 3 4 8 6
f 2 10 9 5
f 3 6 9 10
f 5 9 7
f 6 8 9
f 7 9 8
f 4 7 8
f 10 11 13
f 10 13 12
f 11 12 13
f 14 16 11
f 14 11 5
f 15 6 12
f 15 12 17
f 16 17 12 11
f 18 19 20
f 18 20 10
f 19 10 20
